# xmcd
#
# Track frame offsets:
#	150
#	23703
#	39687
#	50749
#	64892
#	79273
#	92566
#	106294
#	117754
#	131647
#	143978
#	161732
#	175817
#	186345
#	198119
#	207597
#	218800
#	229806
#	239846
#	254208
#	265214
#	278630
#	290554
#
# Disc length: 4045 seconds
#
# Revision: 0
# Processed by: cddbd v1.5.2PL0 Copyright (c) Steve Scherf et al.
# Submitted via: EZCDAudioConverter 1.2.5.1
#
DISCID=6b0fcb17
DTITLE=Marvin Gaye - Ben E. King - The soulful moods of Marvin Gaye - Spanish 
DTITLE=Harlem
DYEAR=2013
DGENRE=Soul
TTITLE0=Marvin Gaye - (I'm afraid) The masquerade is over
TTITLE1=Marvin Gaye - My funny Valentine
TTITLE2=Marvin Gaye - Witchcraft
TTITLE3=Marvin Gaye - Easy living
TTITLE4=Marvin Gaye - How deep is the ocean
TTITLE5=Marvin Gaye - Love for sale
TTITLE6=Marvin Gaye - Always
TTITLE7=Marvin Gaye - How high the moon
TTITLE8=Marvin Gaye - Let your conscience be your guide
TTITLE9=Marvin Gaye - Never let you go
TTITLE10=Marvin Gaye - You don't know what love is
TTITLE11=Ben E. King - Amor
TTITLE12=Ben E. King - Sway
TTITLE13=Ben E. King - Come closer to me
TTITLE14=Ben E. King - Perfidia
TTITLE15=Ben E. King - Granada
TTITLE16=Ben E. King - Sweet and gentle
TTITLE17=Ben E. King - Perhaps, perhaps, perhaps
TTITLE18=Ben E. King - Frenesí
TTITLE19=Ben E. King - Souvenir of Mexico
TTITLE20=Ben E. King - Bésame mucho
TTITLE21=Ben E. King - Love me, love me
TTITLE22=Ben E. King - Spanish Harlem
EXTD=
EXTT0=
EXTT1=
EXTT2=
EXTT3=
EXTT4=
EXTT5=
EXTT6=
EXTT7=
EXTT8=
EXTT9=
EXTT10=
EXTT11=
EXTT12=
EXTT13=
EXTT14=
EXTT15=
EXTT16=
EXTT17=
EXTT18=
EXTT19=
EXTT20=
EXTT21=
EXTT22=
PLAYORDER=
